<svg width="425" height="431" viewBox="0 0 425 431" fill="none" xmlns="http://www.w3.org/2000/svg">
<path d="M212.5 431C329.861 431 425 336.308 425 219.5C425 102.692 329.861 8 212.5 8C95.1395 8 0 102.692 0 219.5C0 336.308 95.1395 431 212.5 431Z" fill="white"/>
<g filter="url(#filter0_i)">
<path d="M253.928 411.6C286.568 411.6 310.184 402.672 324.776 384.816L330.536 377.04L338.888 383.952C331.4 393.744 326.12 399.984 323.048 402.672C320.168 405.168 317 407.664 313.544 410.16C310.28 412.656 307.016 414.672 303.752 416.208C300.68 417.744 298.472 418.896 297.128 419.664L292.808 421.392C278.984 426.576 264.488 429.168 249.32 429.168C234.152 429.168 220.52 426.384 208.424 420.816C196.52 415.248 186.248 407.376 177.608 397.2C168.968 387.024 161.96 374.448 156.584 359.472C151.208 344.496 148.52 330 148.52 315.984C148.52 280.656 163.496 251.568 193.448 228.72C209.96 216.432 227.624 210.288 246.44 210.288C265.256 210.288 280.616 212.592 292.52 217.2C293.48 217.584 294.152 217.776 294.536 217.776C295.112 217.776 295.4 217.392 295.4 216.624C295.4 215.856 294.824 214.608 293.672 212.88H308.072L336.008 255.504L327.944 262.128L321.896 254.352L310.376 243.408C301.736 235.152 292.904 230.16 283.88 228.432C275.048 226.704 266.792 225.84 259.112 225.84C251.432 225.84 244.04 227.088 236.936 229.584C229.832 231.888 222.728 235.632 215.624 240.816C208.712 246 202.376 252.048 196.616 258.96C190.856 265.872 186.248 274.032 182.792 283.44C179.336 292.848 177.608 302.544 177.608 312.528C177.608 339.984 185 363.408 199.784 382.8C214.76 402 232.808 411.6 253.928 411.6Z" fill="#EA371E"/>
<path d="M324.776 384.816L325.163 385.132L325.171 385.123L325.178 385.114L324.776 384.816ZM330.536 377.04L330.855 376.655L330.448 376.318L330.134 376.742L330.536 377.04ZM338.888 383.952L339.285 384.256L339.577 383.874L339.207 383.567L338.888 383.952ZM323.048 402.672L323.375 403.05L323.377 403.048L323.048 402.672ZM313.544 410.16L313.251 409.755L313.24 409.763L313.544 410.16ZM303.752 416.208L303.539 415.755L303.528 415.761L303.752 416.208ZM297.128 419.664L297.314 420.128L297.346 420.115L297.376 420.098L297.128 419.664ZM292.808 421.392L292.984 421.86L292.994 421.856L292.808 421.392ZM208.424 420.816L208.212 421.269L208.215 421.27L208.424 420.816ZM177.608 397.2L177.227 397.524L177.608 397.2ZM156.584 359.472L156.113 359.641L156.584 359.472ZM193.448 228.72L193.149 228.319L193.145 228.322L193.448 228.72ZM292.52 217.2L292.706 216.736L292.701 216.734L292.52 217.2ZM293.672 212.88V212.38H292.738L293.256 213.157L293.672 212.88ZM308.072 212.88L308.49 212.606L308.342 212.38H308.072V212.88ZM336.008 255.504L336.325 255.89L336.672 255.605L336.426 255.23L336.008 255.504ZM327.944 262.128L327.549 262.435L327.865 262.84L328.261 262.514L327.944 262.128ZM321.896 254.352L322.291 254.045L322.268 254.015L322.24 253.989L321.896 254.352ZM310.376 243.408L310.031 243.769L310.032 243.77L310.376 243.408ZM283.88 228.432L283.784 228.923H283.786L283.88 228.432ZM236.936 229.584L237.09 230.06L237.102 230.056L236.936 229.584ZM215.624 240.816L215.329 240.412L215.324 240.416L215.624 240.816ZM196.616 258.96L197 259.28L196.616 258.96ZM182.792 283.44L183.261 283.612L182.792 283.44ZM199.784 382.8L199.386 383.103L199.39 383.108L199.784 382.8ZM253.928 412.1C286.653 412.1 310.442 403.147 325.163 385.132L324.389 384.5C309.927 402.197 286.483 411.1 253.928 411.1V412.1ZM325.178 385.114L330.938 377.338L330.134 376.742L324.374 384.518L325.178 385.114ZM330.217 377.425L338.569 384.337L339.207 383.567L330.855 376.655L330.217 377.425ZM338.491 383.648C330.997 393.447 325.747 399.646 322.719 402.296L323.377 403.048C326.493 400.322 331.803 394.041 339.285 384.256L338.491 383.648ZM322.721 402.294C319.853 404.779 316.697 407.266 313.251 409.755L313.837 410.565C317.303 408.062 320.483 405.557 323.375 403.05L322.721 402.294ZM313.24 409.763C310.001 412.24 306.767 414.237 303.539 415.756L303.965 416.66C307.265 415.107 310.559 413.072 313.848 410.557L313.24 409.763ZM303.528 415.761C300.456 417.297 298.237 418.454 296.88 419.23L297.376 420.098C298.707 419.338 300.904 418.191 303.976 416.655L303.528 415.761ZM296.942 419.2L292.622 420.928L292.994 421.856L297.314 420.128L296.942 419.2ZM292.632 420.924C278.866 426.086 264.43 428.668 249.32 428.668V429.668C264.546 429.668 279.102 427.066 292.984 421.86L292.632 420.924ZM249.32 428.668C234.214 428.668 220.655 425.896 208.633 420.362L208.215 421.27C220.385 426.872 234.09 429.668 249.32 429.668V428.668ZM208.636 420.363C196.798 414.826 186.583 406.999 177.989 396.876L177.227 397.524C185.913 407.753 196.242 415.67 208.212 421.269L208.636 420.363ZM177.989 396.876C169.395 386.754 162.414 374.233 157.055 359.303L156.113 359.641C161.506 374.663 168.541 387.294 177.227 397.524L177.989 396.876ZM157.055 359.303C151.695 344.374 149.02 329.935 149.02 315.984H148.02C148.02 330.065 150.721 344.618 156.113 359.641L157.055 359.303ZM149.02 315.984C149.02 280.824 163.914 251.878 193.751 229.118L193.145 228.322C163.078 251.258 148.02 280.488 148.02 315.984H149.02ZM193.747 229.121C210.181 216.891 227.742 210.788 246.44 210.788V209.788C227.506 209.788 209.739 215.973 193.149 228.319L193.747 229.121ZM246.44 210.788C265.221 210.788 280.514 213.088 292.34 217.666L292.701 216.734C280.718 212.096 265.291 209.788 246.44 209.788V210.788ZM292.334 217.664C292.823 217.86 293.249 218.01 293.607 218.113C293.957 218.213 294.274 218.276 294.536 218.276V217.276C294.414 217.276 294.203 217.243 293.881 217.151C293.567 217.062 293.177 216.924 292.706 216.736L292.334 217.664ZM294.536 218.276C294.946 218.276 295.326 218.132 295.584 217.788C295.822 217.471 295.9 217.056 295.9 216.624H294.9C294.9 216.96 294.834 217.121 294.784 217.188C294.754 217.228 294.702 217.276 294.536 217.276V218.276ZM295.9 216.624C295.9 216.131 295.72 215.548 295.422 214.902C295.119 214.246 294.672 213.479 294.088 212.603L293.256 213.157C293.824 214.009 294.241 214.73 294.514 215.322C294.792 215.924 294.9 216.349 294.9 216.624H295.9ZM293.672 213.38H308.072V212.38H293.672V213.38ZM307.654 213.154L335.59 255.778L336.426 255.23L308.49 212.606L307.654 213.154ZM335.691 255.118L327.627 261.742L328.261 262.514L336.325 255.89L335.691 255.118ZM328.339 261.821L322.291 254.045L321.501 254.659L327.549 262.435L328.339 261.821ZM322.24 253.989L310.72 243.045L310.032 243.77L321.552 254.714L322.24 253.989ZM310.721 243.047C302.032 234.744 293.117 229.692 283.974 227.941L283.786 228.923C292.691 230.628 301.44 235.56 310.031 243.769L310.721 243.047ZM283.976 227.941C275.118 226.208 266.829 225.34 259.112 225.34V226.34C266.755 226.34 274.978 227.2 283.784 228.923L283.976 227.941ZM259.112 225.34C251.377 225.34 243.929 226.597 236.77 229.112L237.102 230.056C244.151 227.579 251.487 226.34 259.112 226.34V225.34ZM236.782 229.108C229.619 231.431 222.469 235.202 215.329 240.412L215.919 241.22C222.987 236.062 230.045 232.345 237.09 230.06L236.782 229.108ZM215.324 240.416C208.38 245.624 202.016 251.699 196.232 258.64L197 259.28C202.736 252.397 209.044 246.376 215.924 241.216L215.324 240.416ZM196.232 258.64C190.431 265.601 185.796 273.812 182.323 283.268L183.261 283.612C186.7 274.252 191.281 266.143 197 259.28L196.232 258.64ZM182.323 283.268C178.846 292.731 177.108 302.485 177.108 312.528H178.108C178.108 302.603 179.826 292.965 183.261 283.612L182.323 283.268ZM177.108 312.528C177.108 340.079 184.528 363.613 199.386 383.103L200.182 382.497C185.472 363.203 178.108 339.889 178.108 312.528H177.108ZM199.39 383.108C214.444 402.408 232.629 412.1 253.928 412.1V411.1C232.987 411.1 215.076 401.592 200.178 382.492L199.39 383.108Z" fill="black"/>
</g>
<path d="M59.0482 61.6318C59.0482 65.2798 59.6242 68.8318 60.7762 72.2878C59.6242 74.5918 57.0322 75.7438 53.0002 75.7438C48.9682 75.7438 45.5122 74.3038 42.6322 71.4238C39.7522 68.5438 38.3122 64.7038 38.3122 59.9038C38.3122 48.9598 43.0162 38.8798 52.4242 29.6638C61.6402 20.2558 72.9682 13.1518 86.4082 8.35177C100.04 3.35977 113.768 0.86377 127.592 0.86377C192.104 0.86377 224.36 23.9998 224.36 70.2718C224.36 82.3678 220.712 93.2158 213.416 102.816C206.12 112.224 197.576 119.136 187.784 123.552C178.184 127.968 168.776 130.176 159.56 130.176C170.312 130.176 179.816 132.576 188.072 137.376C196.52 142.176 203.336 148.416 208.52 156.096C213.896 163.776 218.792 172.32 223.208 181.728C227.816 190.944 232.328 200.256 236.744 209.664C241.16 219.072 245.96 227.616 251.144 235.296C256.328 242.976 262.952 249.216 271.016 254.016C279.272 258.816 288.68 261.216 299.24 261.216C304.04 261.216 307.976 260.256 311.048 258.336C313.928 258.528 315.368 260.16 315.368 263.232C315.368 269.76 308.648 273.024 295.208 273.024C281.768 273.024 269.768 270.528 259.208 265.536C248.648 260.544 240.104 254.016 233.576 245.952C227.048 237.888 221.096 228.96 215.72 219.168C210.536 209.568 205.64 199.968 201.032 190.368C196.424 180.768 191.528 171.936 186.344 163.872C181.352 155.808 174.92 149.28 167.048 144.288C159.176 139.296 150.152 136.8 139.976 136.8C134.984 136.8 132.488 134.112 132.488 128.736C132.488 126.432 133.256 124.704 134.792 123.552C136.328 122.4 138.056 121.824 139.976 121.824C157.832 121.824 171.944 116.64 182.312 106.272C192.68 95.7118 197.864 83.7118 197.864 70.2718C197.864 51.4558 191.528 37.5358 178.856 28.5118C166.184 19.4878 150.344 14.9758 131.336 14.9758C112.52 14.9758 95.7202 19.4878 80.9362 28.5118C66.3442 37.3438 59.0482 48.3838 59.0482 61.6318ZM92.4562 53.2798C92.4562 47.5198 93.8962 43.1998 96.7762 40.3198C99.6562 37.2478 103.112 35.7118 107.144 35.7118C111.176 35.7118 115.112 37.0558 118.952 39.7438V166.752C118.952 186.912 115.112 202.944 107.432 214.848C99.9442 226.752 88.5202 232.704 73.1602 232.704C57.9922 232.704 46.5682 229.152 38.8882 222.048C31.2082 215.136 27.3682 205.92 27.3682 194.4C27.3682 179.616 32.1682 172.224 41.7682 172.224C44.0722 172.224 46.0882 172.8 47.8162 173.952C49.5442 175.104 50.9842 176.736 52.1362 178.848C50.6002 182.88 49.8322 188.832 49.8322 196.704C49.8322 204.576 51.8482 210.624 55.8802 214.848C60.1042 218.88 65.3842 220.896 71.7202 220.896C85.5442 220.896 92.4562 208.608 92.4562 184.032V53.2798Z" fill="#EA371E"/>
<path d="M60.7762 72.2878L61.2234 72.5118L61.316 72.3258L61.2505 72.1298L60.7762 72.2878ZM42.6322 71.4238L42.9858 71.0698L42.6322 71.4238ZM52.4242 29.6638L52.7742 30.0208L52.7814 30.0138L52.4242 29.6638ZM86.4082 8.35177L86.5764 8.82277L86.5801 8.82177L86.4082 8.35177ZM213.416 102.816L213.811 103.122L213.814 103.119L213.416 102.816ZM187.784 123.552L187.578 123.096L187.575 123.098L187.784 123.552ZM188.072 137.376L187.821 137.808L187.825 137.811L188.072 137.376ZM208.52 156.096L208.106 156.376L208.11 156.383L208.52 156.096ZM223.208 181.728L222.755 181.941L222.761 181.952L223.208 181.728ZM236.744 209.664L237.197 209.452L236.744 209.664ZM251.144 235.296L251.558 235.016L251.144 235.296ZM271.016 254.016L270.76 254.446L270.765 254.448L271.016 254.016ZM311.048 258.336L311.081 257.837L310.92 257.826L310.783 257.912L311.048 258.336ZM259.208 265.536L259.422 265.084L259.208 265.536ZM233.576 245.952L233.965 245.637L233.576 245.952ZM215.72 219.168L215.28 219.406L215.282 219.409L215.72 219.168ZM201.032 190.368L200.581 190.584L201.032 190.368ZM186.344 163.872L185.919 164.135L185.923 164.142L186.344 163.872ZM167.048 144.288L167.316 143.866L167.048 144.288ZM134.792 123.552L135.092 123.952L134.792 123.552ZM182.312 106.272L182.666 106.626L182.669 106.622L182.312 106.272ZM178.856 28.5118L178.566 28.9188L178.856 28.5118ZM80.9362 28.5118L81.1951 28.9398L81.1967 28.9388L80.9362 28.5118ZM96.7762 40.3198L97.1298 40.6738L97.1355 40.6678L97.141 40.6618L96.7762 40.3198ZM118.952 39.7438H119.452V39.4838L119.239 39.3338L118.952 39.7438ZM107.432 214.848L107.012 214.577L107.009 214.582L107.432 214.848ZM38.8882 222.048L39.2278 221.681L39.2227 221.676L38.8882 222.048ZM47.8162 173.952L48.0936 173.536H48.0935L47.8162 173.952ZM52.1362 178.848L52.6034 179.026L52.6854 178.811L52.5751 178.609L52.1362 178.848ZM55.8802 214.848L55.5185 215.193L55.5266 215.202L55.535 215.21L55.8802 214.848ZM58.5482 61.6318C58.5482 65.3338 59.1328 68.9388 60.3019 72.4458L61.2505 72.1298C60.1156 68.7248 59.5482 65.2258 59.5482 61.6318H58.5482ZM60.329 72.0638C59.3038 74.1148 56.9602 75.2438 53.0002 75.2438V76.2438C57.1042 76.2438 59.9446 75.0688 61.2234 72.5118L60.329 72.0638ZM53.0002 75.2438C49.1023 75.2438 45.7731 73.8578 42.9858 71.0698L42.2786 71.7778C45.2513 74.7498 48.8341 76.2438 53.0002 76.2438V75.2438ZM42.9858 71.0698C40.2161 68.3008 38.8122 64.5968 38.8122 59.9038H37.8122C37.8122 64.8108 39.2883 68.7868 42.2786 71.7778L42.9858 71.0698ZM38.8122 59.9038C38.8122 49.1208 43.4411 39.1638 52.7741 30.0208L52.0743 29.3068C42.5913 38.5958 37.8122 48.7988 37.8122 59.9038H38.8122ZM52.7814 30.0138C61.94 20.6638 73.2017 13.5998 86.5764 8.82277L86.24 7.88077C72.7348 12.7038 61.3404 19.8478 52.067 29.3138L52.7814 30.0138ZM86.5801 8.82177C100.16 3.84877 113.83 1.36377 127.592 1.36377V0.36377C113.706 0.36377 99.9206 2.87077 86.2363 7.88177L86.5801 8.82177ZM127.592 1.36377C159.803 1.36377 183.872 7.14277 199.877 18.6218C215.851 30.0798 223.86 47.2668 223.86 70.2718H224.86C224.86 47.0048 216.741 29.4878 200.459 17.8098C184.208 6.15277 159.893 0.36377 127.592 0.36377V1.36377ZM223.86 70.2718C223.86 82.2588 220.248 93.0008 213.018 102.513L213.814 103.119C221.176 93.4308 224.86 82.4768 224.86 70.2718H223.86ZM213.021 102.51C205.769 111.86 197.288 118.717 187.578 123.096L187.99 124.008C197.864 119.555 206.471 112.588 213.811 103.122L213.021 102.51ZM187.575 123.098C178.031 127.488 168.694 129.676 159.56 129.676V130.676C168.858 130.676 178.337 128.448 187.993 124.006L187.575 123.098ZM159.56 130.676C170.235 130.676 179.65 133.058 187.821 137.808L188.323 136.944C179.982 132.094 170.389 129.676 159.56 129.676V130.676ZM187.825 137.811C196.209 142.575 202.967 148.763 208.106 156.376L208.934 155.816C203.705 148.069 196.831 141.777 188.319 136.941L187.825 137.811ZM208.11 156.383C213.468 164.037 218.35 172.556 222.755 181.94L223.661 181.516C219.234 172.084 214.324 163.515 208.93 155.809L208.11 156.383ZM222.761 181.952C227.367 191.164 231.877 200.472 236.291 209.876L237.197 209.452C232.779 200.04 228.265 190.724 223.655 181.504L222.761 181.952ZM236.291 209.876C240.717 219.305 245.53 227.872 250.73 235.576L251.558 235.016C246.39 227.36 241.603 218.839 237.197 209.452L236.291 209.876ZM250.73 235.576C255.955 243.318 262.634 249.608 270.76 254.446L271.272 253.586C263.27 248.824 256.701 242.634 251.558 235.016L250.73 235.576ZM270.765 254.448C279.105 259.297 288.601 261.716 299.24 261.716V260.716C288.759 260.716 279.439 258.335 271.267 253.584L270.765 254.448ZM299.24 261.716C304.104 261.716 308.14 260.743 311.313 258.76L310.783 257.912C307.812 259.769 303.976 260.716 299.24 260.716V261.716ZM311.015 258.835C312.368 258.925 313.306 259.347 313.913 260.035C314.525 260.728 314.868 261.768 314.868 263.232H315.868C315.868 261.624 315.491 260.312 314.663 259.373C313.83 258.429 312.608 257.939 311.081 257.837L311.015 258.835ZM314.868 263.232C314.868 264.773 314.473 266.101 313.696 267.233C312.916 268.369 311.731 269.338 310.11 270.126C306.852 271.708 301.904 272.524 295.208 272.524V273.524C301.952 273.524 307.084 272.708 310.546 271.026C312.285 270.182 313.62 269.111 314.52 267.799C315.423 266.483 315.868 264.955 315.868 263.232H314.868ZM295.208 272.524C281.831 272.524 269.906 270.04 259.422 265.084L258.994 265.988C269.63 271.016 281.705 273.524 295.208 273.524V272.524ZM259.422 265.084C248.921 260.12 240.44 253.636 233.965 245.637L233.187 246.267C239.768 254.396 248.375 260.968 258.994 265.988L259.422 265.084ZM233.965 245.637C227.457 237.598 221.521 228.695 216.158 218.927L215.282 219.409C220.671 229.225 226.639 238.178 233.187 246.267L233.965 245.637ZM216.16 218.93C210.98 209.337 206.087 199.744 201.483 190.152L200.581 190.584C205.193 200.192 210.092 209.799 215.28 219.406L216.16 218.93ZM201.483 190.152C196.867 180.535 191.961 171.685 186.765 163.602L185.923 164.142C191.095 172.187 195.981 181.001 200.581 190.584L201.483 190.152ZM186.769 163.609C181.738 155.482 175.253 148.899 167.316 143.866L166.78 144.71C174.587 149.661 180.966 156.134 185.919 164.135L186.769 163.609ZM167.316 143.866C159.356 138.818 150.238 136.3 139.976 136.3V137.3C150.066 137.3 158.996 139.774 166.78 144.71L167.316 143.866ZM139.976 136.3C137.567 136.3 135.849 135.653 134.726 134.444C133.597 133.227 132.988 131.356 132.988 128.736H131.988C131.988 131.492 132.627 133.653 133.994 135.124C135.367 136.603 137.393 137.3 139.976 137.3V136.3ZM132.988 128.736C132.988 126.554 133.708 124.99 135.092 123.952L134.492 123.152C132.804 124.418 131.988 126.31 131.988 128.736H132.988ZM135.092 123.952C136.541 122.865 138.164 122.324 139.976 122.324V121.324C137.948 121.324 136.115 121.935 134.492 123.152L135.092 123.952ZM139.976 122.324C157.934 122.324 172.184 117.107 182.666 106.626L181.958 105.918C171.704 116.173 157.73 121.324 139.976 121.324V122.324ZM182.669 106.622C193.118 95.9788 198.364 83.8568 198.364 70.2718H197.364C197.364 83.5668 192.242 95.4448 181.955 105.922L182.669 106.622ZM198.364 70.2718C198.364 51.3328 191.978 37.2428 179.146 28.1048L178.566 28.9188C191.078 37.8288 197.364 51.5788 197.364 70.2718H198.364ZM179.146 28.1048C166.372 19.0078 150.425 14.4758 131.336 14.4758V15.4758C150.263 15.4758 165.996 19.9678 178.566 28.9188L179.146 28.1048ZM131.336 14.4758C112.436 14.4758 95.5449 19.0088 80.6757 28.0848L81.1967 28.9388C95.8955 19.9668 112.604 15.4758 131.336 15.4758V14.4758ZM80.6773 28.0838C65.9848 36.9768 58.5482 48.1578 58.5482 61.6318H59.5482C59.5482 48.6098 66.7036 37.7108 81.1951 28.9398L80.6773 28.0838ZM92.9562 53.2798C92.9562 47.5968 94.3766 43.4268 97.1298 40.6738L96.4226 39.9658C93.4158 42.9728 91.9562 47.4428 91.9562 53.2798H92.9562ZM97.141 40.6618C99.9312 37.6858 103.257 36.2118 107.144 36.2118V35.2118C102.967 35.2118 99.3812 36.8098 96.4114 39.9778L97.141 40.6618ZM107.144 36.2118C111.057 36.2118 114.895 37.5148 118.665 40.1538L119.239 39.3338C115.329 36.5968 111.295 35.2118 107.144 35.2118V36.2118ZM118.452 39.7438V166.752H119.452V39.7438H118.452ZM118.452 166.752C118.452 186.855 114.622 202.781 107.012 214.577L107.852 215.119C115.602 203.107 119.452 186.969 119.452 166.752H118.452ZM107.009 214.582C99.6221 226.325 88.3673 232.204 73.1602 232.204V233.204C88.6731 233.204 100.266 227.179 107.855 215.114L107.009 214.582ZM73.1602 232.204C58.062 232.204 46.7811 228.668 39.2277 221.681L38.5487 222.415C46.3553 229.636 57.9224 233.204 73.1602 233.204V232.204ZM39.2227 221.676C31.6608 214.871 27.8682 205.796 27.8682 194.4H26.8682C26.8682 206.044 30.7556 215.401 38.5537 222.42L39.2227 221.676ZM27.8682 194.4C27.8682 187.046 29.0649 181.617 31.3875 178.04C33.686 174.501 37.1196 172.724 41.7682 172.724V171.724C36.8168 171.724 33.0504 173.643 30.5489 177.496C28.0715 181.311 26.8682 186.97 26.8682 194.4H27.8682ZM41.7682 172.724C43.9847 172.724 45.9018 173.277 47.5388 174.368L48.0935 173.536C46.2746 172.323 44.1597 171.724 41.7682 171.724V172.724ZM47.5388 174.368C49.1895 175.468 50.5779 177.035 51.6973 179.087L52.5751 178.609C51.3905 176.437 49.8989 174.74 48.0936 173.536L47.5388 174.368ZM51.669 178.67C50.1002 182.788 49.3322 188.813 49.3322 196.704H50.3322C50.3322 188.851 51.1002 182.972 52.6034 179.026L51.669 178.67ZM49.3322 196.704C49.3322 204.659 51.3705 210.848 55.5185 215.193L56.2419 214.503C52.3259 210.4 50.3322 204.493 50.3322 196.704H49.3322ZM55.535 215.21C59.8603 219.338 65.2676 221.396 71.7202 221.396V220.396C65.5008 220.396 60.3481 218.422 56.2254 214.486L55.535 215.21ZM71.7202 221.396C78.8173 221.396 84.1656 218.223 87.708 211.925C91.2268 205.67 92.9562 196.35 92.9562 184.032H91.9562C91.9562 196.29 90.2296 205.402 86.8364 211.435C83.4668 217.425 78.4471 220.396 71.7202 220.396V221.396ZM92.9562 184.032V53.2798H91.9562V184.032H92.9562Z" fill="black"/>
<defs>
<filter id="filter0_i" x="148.02" y="209.788" width="191.557" height="223.88" filterUnits="userSpaceOnUse" color-interpolation-filters="sRGB">
<feFlood flood-opacity="0" result="BackgroundImageFix"/>
<feBlend mode="normal" in="SourceGraphic" in2="BackgroundImageFix" result="shape"/>
<feColorMatrix in="SourceAlpha" type="matrix" values="0 0 0 0 0 0 0 0 0 0 0 0 0 0 0 0 0 0 127 0" result="hardAlpha"/>
<feOffset dy="4"/>
<feGaussianBlur stdDeviation="2"/>
<feComposite in2="hardAlpha" operator="arithmetic" k2="-1" k3="1"/>
<feColorMatrix type="matrix" values="0 0 0 0 0 0 0 0 0 0 0 0 0 0 0 0 0 0 0.25 0"/>
<feBlend mode="normal" in2="shape" result="effect1_innerShadow"/>
</filter>
</defs>
</svg>
